
<svg xmlns="http://www.w3.org/2000/svg" version="1.1" xmlns:xlink="http://www.w3.org/1999/xlink" preserveAspectRatio="none" x="0px" y="0px" width="30px" height="30px" viewBox="0 0 30 30">
<defs>
<path id="Layer2_0_1_STROKES" stroke="#FFFFFF" stroke-width="3" stroke-linejoin="round" stroke-linecap="round" fill="none" d="
M 28.018658447265626 14.975775146484374
Q 28.018658447265626 20.324359130859378 24.15579223632813 24.112939453125005 20.3672119140625 27.975805664062502 15.018627929687497 27.975805664062502 9.6700439453125 27.975805664062502 5.807177734374999 24.112939453125005 2.018597412109374 20.324359130859378 2.018597412109374 14.975775146484374 2.018597412109374 9.627191162109376 5.807177734374999 5.764324951171876 9.6700439453125 1.9757446289062504 15.018627929687497 1.9757446289062504 20.3672119140625 1.9757446289062504 24.15579223632813 5.764324951171876 28.018658447265626 9.627191162109376 28.018658447265626 14.975775146484374 Z"/>

<path id="Layer0_0_1_STROKES" stroke="#FFFFFF" stroke-width="3" stroke-linejoin="round" stroke-linecap="round" fill="none" d="
M 18 20
L 12 15 18 10"/>
</defs>

<g transform="matrix( 1.4857177734375, 0, 0, 1.4857177734375, -9.05,-10.95) ">
<use xlink:href="#Layer2_0_1_STROKES" transform="matrix( 0.673065185546875, 0, 0, 0.673065185546875, 6.05,7.35) "/>
</g>

<g transform="matrix( -1, 0, 0, -1, 31,30) ">
<use xlink:href="#Layer0_0_1_STROKES" transform="matrix( -1, 0, 0, -1, 31,30) "/>
</g>
</svg>
